<svg xmlns="http://www.w3.org/2000/svg" xmlns:xlink="http://www.w3.org/1999/xlink" width="480" zoomAndPan="magnify" viewBox="0 0 360 359.999987" height="480" preserveAspectRatio="xMidYMid meet" version="1.0"><defs><clipPath id="a5be4f8551"><path d="M 17.5 17.5 L 342.25 17.5 L 342.25 342.25 L 17.5 342.25 Z M 17.5 17.5 " clip-rule="nonzero"/></clipPath></defs><g clip-path="url(#a5be4f8551)"><path fill="#000000" d="M 179.875 17.5 C 90.199219 17.5 17.5 90.199219 17.5 179.875 C 17.5 269.550781 90.199219 342.25 179.875 342.25 C 269.550781 342.25 342.25 269.550781 342.25 179.875 C 342.25 90.199219 269.550781 17.5 179.875 17.5 Z M 179.875 329.953125 C 96.992188 329.953125 29.796875 262.757812 29.796875 179.875 C 29.796875 96.992188 96.992188 29.796875 179.875 29.796875 C 262.757812 29.796875 329.953125 96.992188 329.953125 179.875 C 329.953125 262.757812 262.757812 329.953125 179.875 329.953125 Z M 179.875 329.953125 " fill-opacity="1" fill-rule="nonzero"/></g><path fill="#000000" d="M 160.816406 259.464844 C 156.746094 259.855469 153.492188 260.304688 150.226562 260.460938 C 131.699219 261.335938 117.980469 254.03125 109.664062 237 C 107.015625 231.574219 103.621094 226.457031 100.089844 221.542969 C 97.96875 218.589844 95 216.21875 92.253906 213.761719 L 92.21875 213.734375 C 90.523438 212.238281 91.273438 209.445312 93.5 209.070312 C 96.117188 208.628906 98.558594 209.101562 100.9375 209.707031 C 108.386719 211.605469 113.167969 216.886719 116.980469 223.203125 C 125.59375 237.488281 140.433594 243.445312 156.476562 239.1875 C 159.199219 238.464844 160.402344 237.292969 160.996094 234.324219 C 161.6875 230.859375 162.625 227.441406 163.636719 223.960938 C 163.785156 223.449219 163.878906 222.925781 163.921875 222.394531 C 163.964844 221.863281 163.953125 221.332031 163.886719 220.800781 C 163.824219 220.269531 163.703125 219.753906 163.535156 219.246094 C 163.363281 218.742188 163.144531 218.257812 162.875 217.796875 C 162.605469 217.335938 162.292969 216.90625 161.933594 216.507812 C 161.578125 216.113281 161.1875 215.753906 160.757812 215.4375 C 160.328125 215.117188 159.871094 214.847656 159.386719 214.621094 C 158.902344 214.398438 158.398438 214.222656 157.878906 214.101562 L 157.789062 214.082031 C 141.144531 210.097656 126.761719 202.679688 117.496094 187.46875 C 112.539062 179.332031 110.089844 170.371094 110.214844 161.035156 C 110.355469 150.441406 111.292969 139.828125 112.511719 129.296875 C 113.367188 121.878906 116.804688 115.3125 122.136719 109.980469 C 123.996094 108.121094 124.152344 106.5625 123.253906 104.15625 C 119.582031 94.300781 120.222656 84.425781 123.480469 74.550781 C 124.398438 71.765625 125.703125 71.367188 128.371094 72.203125 C 136.621094 74.800781 142.773438 80.167969 148.183594 86.597656 L 148.238281 86.664062 C 148.917969 87.480469 149.703125 88.175781 150.589844 88.757812 C 151.480469 89.339844 152.433594 89.777344 153.453125 90.074219 C 154.476562 90.367188 155.515625 90.507812 156.578125 90.488281 C 157.640625 90.472656 158.675781 90.300781 159.6875 89.972656 C 176.804688 84.359375 202.773438 84.28125 218.917969 89.839844 C 219.933594 90.183594 220.976562 90.371094 222.046875 90.398438 C 223.117188 90.425781 224.167969 90.296875 225.199219 90.007812 C 226.230469 89.714844 227.195312 89.28125 228.09375 88.699219 C 228.996094 88.113281 229.789062 87.414062 230.472656 86.589844 L 230.527344 86.527344 C 235.941406 80.101562 242.125 74.773438 250.367188 72.171875 C 253.132812 71.296875 254.3125 71.960938 255.1875 74.652344 C 258.402344 84.53125 258.953125 94.347656 255.472656 104.304688 C 254.984375 105.707031 255.003906 108.144531 255.875 109.03125 C 263.265625 116.527344 266.5 125.835938 267.324219 135.917969 C 268.117188 145.660156 268.972656 155.570312 268.070312 165.242188 C 265.71875 190.402344 250.417969 205.054688 227.15625 212.339844 C 225.164062 212.964844 223.144531 213.488281 221.078125 213.976562 C 220.542969 214.101562 220.023438 214.28125 219.527344 214.519531 C 219.027344 214.753906 218.558594 215.039062 218.121094 215.371094 C 217.679688 215.707031 217.28125 216.082031 216.921875 216.5 C 216.5625 216.917969 216.246094 217.367188 215.980469 217.851562 C 215.714844 218.335938 215.503906 218.839844 215.34375 219.371094 C 215.1875 219.898438 215.082031 220.4375 215.035156 220.984375 C 214.992188 221.535156 215 222.085938 215.070312 222.632812 C 215.140625 223.179688 215.265625 223.714844 215.445312 224.234375 C 218.613281 233.417969 218.128906 243.226562 218.082031 252.972656 C 218.070312 255.214844 218.0625 257.457031 218.058594 259.699219 C 218.054688 260.625 218.007812 261.546875 217.917969 262.46875 C 217.824219 263.390625 217.6875 264.304688 217.503906 265.210938 C 217.320312 266.121094 217.09375 267.015625 216.824219 267.902344 C 216.554688 268.785156 216.242188 269.65625 215.886719 270.511719 C 215.53125 271.367188 215.132812 272.199219 214.695312 273.015625 C 214.257812 273.832031 213.78125 274.625 213.265625 275.394531 C 212.75 276.160156 212.199219 276.902344 211.613281 277.617188 C 211.023438 278.332031 210.402344 279.019531 209.746094 279.671875 C 209.089844 280.324219 208.40625 280.945312 207.691406 281.53125 C 206.972656 282.117188 206.230469 282.667969 205.460938 283.183594 C 204.691406 283.695312 203.898438 284.171875 203.082031 284.605469 C 202.265625 285.042969 201.429688 285.4375 200.574219 285.789062 C 199.71875 286.144531 198.847656 286.457031 197.960938 286.722656 C 197.074219 286.992188 196.179688 287.214844 195.269531 287.394531 C 194.363281 287.578125 193.449219 287.710938 192.527344 287.800781 C 191.605469 287.894531 190.683594 287.9375 189.757812 287.9375 L 189.117188 287.9375 C 188.191406 287.9375 187.265625 287.894531 186.34375 287.800781 C 185.421875 287.710938 184.507812 287.574219 183.597656 287.394531 C 182.6875 287.214844 181.789062 286.988281 180.902344 286.71875 C 180.015625 286.449219 179.144531 286.136719 178.289062 285.785156 C 177.429688 285.429688 176.59375 285.03125 175.777344 284.597656 C 174.960938 284.160156 174.164062 283.683594 173.394531 283.167969 C 172.625 282.652344 171.878906 282.101562 171.164062 281.515625 C 170.449219 280.925781 169.761719 280.304688 169.105469 279.648438 C 168.449219 278.992188 167.828125 278.308594 167.242188 277.589844 C 166.652344 276.875 166.101562 276.128906 165.585938 275.359375 C 165.070312 274.589844 164.59375 273.796875 164.160156 272.976562 C 163.722656 272.160156 163.324219 271.324219 162.972656 270.464844 C 162.617188 269.609375 162.304688 268.738281 162.035156 267.851562 C 161.765625 266.964844 161.542969 266.066406 161.359375 265.15625 C 161.179688 264.25 161.042969 263.332031 160.953125 262.410156 C 160.863281 261.488281 160.816406 260.5625 160.816406 259.636719 Z M 160.816406 259.464844 " fill-opacity="1" fill-rule="nonzero"/></svg>