<svg xmlns="http://www.w3.org/2000/svg" xmlns:xlink="http://www.w3.org/1999/xlink" width="480" zoomAndPan="magnify" viewBox="0 0 360 359.999987" height="480" preserveAspectRatio="xMidYMid meet" version="1.0"><defs><clipPath id="df618010d0"><path d="M 15.082031 14.296875 L 344 14.296875 L 344 344 L 15.082031 344 Z M 15.082031 14.296875 " clip-rule="nonzero"/></clipPath></defs><g clip-path="url(#df618010d0)"><path fill="#000000" d="M 294.878906 294.613281 L 246.214844 294.613281 L 246.214844 218.363281 C 246.214844 200.179688 245.890625 176.777344 220.910156 176.777344 C 195.929688 176.777344 191.6875 196.585938 191.6875 217.046875 L 191.6875 294.613281 L 143.023438 294.613281 L 143.023438 137.8125 L 189.738281 137.8125 L 189.738281 159.246094 L 190.386719 159.246094 C 199.90625 142.953125 217.628906 133.210938 236.480469 133.921875 C 285.792969 133.921875 294.894531 166.386719 294.894531 208.605469 L 294.894531 294.628906 Z M 88.140625 116.375 C 72.535156 116.375 59.90625 103.738281 59.890625 88.125 C 59.875 72.511719 72.519531 59.875 88.125 59.859375 C 103.726562 59.859375 116.355469 72.496094 116.371094 88.109375 C 116.386719 103.722656 103.742188 116.359375 88.140625 116.375 M 112.46875 294.613281 L 63.761719 294.613281 L 63.761719 137.8125 L 112.46875 137.8125 Z M 319.132812 14.648438 L 39.320312 14.648438 C 26.085938 14.511719 15.238281 25.105469 15.082031 38.347656 L 15.082031 319.515625 C 15.238281 332.757812 26.085938 343.367188 39.320312 343.230469 L 319.148438 343.230469 C 332.414062 343.398438 343.296875 332.789062 343.480469 319.515625 L 343.480469 38.316406 C 343.28125 25.058594 332.398438 14.464844 319.132812 14.632812 " fill-opacity="1" fill-rule="nonzero"/></g></svg>